<?xml version="1.0" encoding="UTF-8"?>
<svg id="a" xmlns="http://www.w3.org/2000/svg" version="1.1" viewBox="0 0 1019 1019">
  <!-- Generator: Adobe Illustrator 29.2.1, SVG Export Plug-In . SVG Version: 2.1.0 Build 116)  -->
  <defs>
    <style>
      .st0 {
        fill: #e94335;
      }

      .st1 {
        fill: #010101;
      }

      .st2 {
        fill: #4298f1;
      }

      .st3 {
        fill: #36a652;
      }

      .st4 {
        fill: #020302;
      }

      .st5 {
        fill: #fdfefd;
      }

      .st6 {
        fill: #040300;
      }

      .st7 {
        fill: #fabb06;
      }

      .st8 {
        fill: #fefdfd;
      }

      .st9 {
        fill: #f9bb05;
      }

      .st10 {
        fill: #010000;
      }

      .st11 {
        fill: #38893e;
      }

      .st12 {
        fill: #e74336;
      }

      .st13 {
        fill: #4299f3;
      }

      .st14 {
        fill: #35a752;
      }

      .st15 {
        fill: #fdfdfe;
      }

      .st16 {
        fill: #020101;
      }

      .st17 {
        fill: #f9bb06;
      }

      .st18 {
        fill: #010203;
      }

      .st19 {
        fill: #35a753;
      }
    </style>
  </defs>
  <path class="st7" d="M280.4,650.2l-1.9,10.5-167.1,272.3H3l-3-4.5v-11.9l164-264-1.5-1.5H27.2c-1.7.5-2.3-.5-3.4-1l99.4-.5,63.6-90,29.8,90c21.2.8,42.5.5,63.7.5h0Z"/>
  <path class="st0" d="M572.6,549.8c48.4,8.5,84.6,35.9,81.6,89-2.3,41.5-23.1,80.3-61.7,97.9,3,3.2,7.4,4.9,10.8,7.5,52.5,39.6,29.5,128.2-17.5,163.3-61.7,46-244.7,55-251.9-49-3.3-47.5,23.1-103.2,68.6-121.8-2.6-4.2-7.1-6.4-10.5-9.9-20.1-21.5-19.8-52.6-14.1-79.8,11-52.4,47.6-82.2,98.1-94.2-4.5,30.1-10.5,60-15.4,90,3.6,9.3,11.2,5.9,19,6.4,1.3,0,2.3,1,2.4,1-8.6,12.9-11.4,33.6,5.3,40.9,28.4,12.5,69.5-6,61.3-40.9,0-.3,0-.7,0-1h6l16.9-99.4c.3,0,.7,0,1,0h0ZM483.9,783.7c-17.4,2-33.4,12.8-38.8,29.8-6.8,21.3.9,31.4,22.8,33.5,23.1,2.2,53.3,0,59.6-26.7,7.2-30.4-17.8-39.4-43.5-36.5h0Z"/>
  <path class="st19" d="M859.9,549.8c44.6-4.8,102.2-2.8,133.7,33.8,34.7,40.4,25.6,105.1,14.9,153.1-25.3,113.1-76.4,180.5-196,197.7-18.2,2.6-51,6.5-68.5,4.2-4.5-.6-9.5-8-8.4-12.5l14.9-87c43.5-2.1,101.6,2.4,129.2-38.3-51.9,15.6-131.7,10.5-152.1-49.7-10.3-30.3-5.2-71,5-100.9,0,0,.8-.3,1-1h117.3v1c-6.5.8-14.8,13.9-17.4,19.9-15.7,37,4.6,60.1,43.5,52.4,29.2-5.8,45.1-50.2,28.6-72.3-.2-.2.2-.8,0-1h52.6c0,0,13.1-73.1,13.1-73.1.7-2.3-3.3-7.2-5-8.4-.7-.5-1.1-1.4-2.4-1-38.5-.3-77,.5-115.4,0-1.7,0-4.4.6-5.5-1,4-5.9,11-8.9,14.9-14.9l2-1h0Z"/>
  <path class="st13" d="M710.8,355.9c15.3-149,104.5-252.9,259-258.5,3.3-.1,16.6-.6,18.4.5,1.3.8,7.4,8.6,6,10.9l-15.9,87.6c-44.3,2.6-99.7,3.7-126.3,45.2,8.5-2.2,16.8-4.6,25.5-5.8,26.5-3.6,58.4-2.7,83.2,8,60.3,25.8,52.2,109.6,29.5,158.9,2-9.4,7-33.8,7-42.3,0-4.5-1.8-7-5.1-9.9-31.1-1-62.3-.5-93.4-.5,2.4-27-19.7-30.4-41.3-28.9-17.2,1.2-33.4,11-36.2,28.9h-1c-14.9,0-36.3-1.8-50.3,0-1.1.1-2.2,0-3,1l-13.3,73.2c-1.1,2,4.7,8.3,5.4,8.3h103.9l-54.7,54.7h-2c-71.5-9-101-55.7-95.4-125.3.2-2-.2-4,0-6h0Z"/>
  <path class="st7" d="M441.4,349.9l91.5-149.1h-139.7l-7.2-9.2,15.8-88.1,255.9-.2c5,4.1,6.9,6.3,6.3,13.4-2.7,30-13,63.1-17,93.3l-118,192.6c-5.3-17.4-11.2-34.9-16.9-52.2-23.5-.5-47.1-.9-70.6-.5h0Z"/>
  <path class="st7" d="M185.9,369.8c-1.1-3-6.1-19.2-7.6-19.8h-99.8c28.9-46.9,58.7-93.2,86.9-140.4,1.6-2.7,3.9-5.8,4.6-8.9H29.8c-1-4.4-6.8-6-6-11.4l15-86h255.1c2.1-.6,8.2,7.1,8.3,8.4l-17.4,97.9-98.9,160.1h0Z"/>
  <path class="st1" d="M185.9,371.8c7.2,21.1,15.1,41.9,21.8,63.2l2.1,1.4,57.7-86h100.5c.6,3.9,5.3,7.4,3,11l-103.3,133.4.3,4.3c7.6,17.7,14.2,35.8,21.4,53.7-67.6.2-135.2-.2-202.8,0l42.2-54.7c1.7-5-6.3-15.1-6.4-20.8,0-1.3.1-2.5.8-3.7l62.9-101.7h0Z"/>
  <path class="st1" d="M710.8,355.9c-.2,1.9.2,4,0,6l-134.6,173.1c-2.9,4.2-3.6,9.8-3.6,14.8-.3,0-.7,0-1,0-30.4-5-65.5-4.2-95.4,3,.7-5,2.3-9.9,2.5-15-7.6-17.7-14.2-35.8-21.4-53.6,7-2.4,15.4,0,22.7-1.2l48.9-79.3,13.4,43.7,68.1-96.9,97,.4,3.4,5h0Z"/>
  <path class="st12" d="M820.2,349.9c-4.9,19.4-6.3,45.1,19.4,47.7,31,3.1,58.4-15,58.2-47.7h1c31.1,0,62.3-.5,93.4.5,3.2,2.9,5.1,5.5,5.1,9.9,0,8.5-5,32.9-7,42.3-.5,2.4-1,3.7-2,6-31,68.4-111.4,86-179.9,78.5l54.7-54.7h-103.9c-.7,0-6.5-6.3-5.4-8.3l13.3-73.2c.7-1.1,1.9-.9,3-1,14-1.8,35.4.1,50.3,0h0Z"/>
  <path class="st3" d="M289.3,552.8c2.3,5.7,6.2,9.1,6,15.9l-13.9,81.5h-1c-21.2,0-42.5.3-63.7-.5l-29.8-90-63.6,90-99.4.5c-2.9-1.5-6-6.7-6-9.9l67.6-87.5h1c67.6-.2,135.2.2,202.8,0h0Z"/>
  <path class="st16" d="M859.9,549.8l-2,1c-58.9,6.7-104.5,42.7-124.3,98.4-.2.7-1,.9-1,1-9.4-.5-20.2,3.1-24.9-7.5l12.5-71,86-84.5h2c68.5,7.5,148.9-10.1,179.9-78.5l-3.5,19.8c-41.8,40.2-83.6,80.5-124.7,121.4h0Z"/>
  <path class="st19" d="M528.9,402.6c0,.3,0,.7,0,1l-48.9,79.3c-7.3,1.1-15.7-1.2-22.7,1.2-.1-.3-.9-.6-1-1-12.7-31.5-25.2-63.2-38.8-94.4v-2l22.9-36.8h1c23.5-.5,47.1,0,70.6.5,5.7,17.3,11.5,34.8,16.9,52.2h0Z"/>
  <path class="st7" d="M121.3,477.2l-4,5.5-105.9.5c-3.5,0-8.7-10-7.7-12.7,23-37.4,46.8-74.3,69.9-111.7,0,0,47.7,118.3,47.7,118.3Z"/>
  <path class="st14" d="M185.9,369.8c.2.5-.2,1.5,0,2l-62.9,101.7c-.7,1.1-.8,2.4-.8,3.7h-1l-47.7-118.3c1.8-2.8,3.2-6,5-9h99.8c1.5.7,6.5,16.9,7.6,19.9h0Z"/>
  <path class="st7" d="M456.3,483.2h-83c-2.2-.4-6.6-7.8-7-9.9-1-4.8,46-74.4,51.3-84.5,13.5,31.2,26,62.9,38.8,94.4Z"/>
  <path class="st17" d="M85.5,552.8l-67.6,87.5,15.4-86.5c.7-1.1,1.9-.9,3-1,13.7-1.7,34.6,0,49.3,0h0Z"/>
  <path class="st4" d="M281.3,650.2l13.9-81.5,29.7,73.8-6.3,7.7c-12.4,0-24.9,0-37.3,0h0Z"/>
  <path class="st4" d="M440.4,349.9l-22.9,36.8-11.5-25.8c-1.5-3.8,2.5-7,4.2-10,10.1.3,20.1-.8,30.1-1h0Z"/>
  <path class="st2" d="M571.6,549.8l-16.9,99.4h-6c-5.1-15.1-32.2-14-44.8-11.5-7.8,1.6-15.5,4.8-20.8,11l5,1.5c-2,0-4,0-6,0-.1,0-1.1-1-2.4-1-7.8-.5-15.4,3-19-6.4,5-30,11-59.9,15.4-90,30-7.1,65.1-8,95.4-3h0Z"/>
  <path class="st8" d="M483.9,783.7c25.7-2.9,50.7,6.1,43.5,36.5-6.3,26.8-36.4,28.9-59.6,26.7-21.9-2.1-29.6-12.1-22.8-33.5,5.4-17,21.5-27.8,38.8-29.8h0Z"/>
  <path class="st8" d="M488.1,650.2c20.2.6,40.5-.5,60.6,0,8.2,34.9-32.9,53.5-61.3,40.9-16.6-7.3-13.9-28-5.3-40.9,2,0,4,0,6,0h0Z"/>
  <path class="st18" d="M548.8,649.2c0,.3,0,.7,0,1-20.2-.5-40.5.6-60.6,0l-5-1.5c5.3-6.2,13-9.4,20.8-11,12.6-2.5,39.7-3.6,44.8,11.5h0Z"/>
  <path class="st9" d="M858,550.8c-3.9,6-10.9,9-14.9,14.9-.2.3-2.4.7-.5,2h123.8c1.7,1.2,5.7,6,5,8.4l-13.1,73h-52.6c-11.9-13.9-41.3-10.6-54.7,0h-117.3c19.8-55.7,65.3-91.8,124.3-98.4h0Z"/>
  <path class="st5" d="M851,650.2c16.9-2,37.4,1.5,54.7,0,16.5,22.1.5,66.5-28.6,72.3-38.9,7.7-59.2-15.4-43.5-52.4,2.5-6,10.9-19.2,17.4-19.9h0Z"/>
  <path class="st6" d="M905.7,649.2c.2.2-.2.8,0,1-17.3,1.5-37.8-2-54.7,0v-1c13.3-10.7,42.8-14,54.7,0Z"/>
  <path class="st11" d="M966.3,567.7h-123.8c-1.9-1.2.3-1.7.5-2,1,1.7,3.8,1,5.5,1,38.5.5,77-.3,115.4,0,1.3-.3,1.7.6,2.4,1h0Z"/>
  <path class="st10" d="M897.7,349.9c.2,32.7-27.1,50.8-58.2,47.7-25.7-2.6-24.3-28.3-19.4-47.7h1c25.5,0,51,0,76.5,0h0Z"/>
  <path class="st15" d="M898.7,349.9h-1c-25.5,0-51,0-76.5,0,2.9-17.9,19-27.7,36.2-28.9,21.6-1.5,43.7,1.9,41.3,28.9Z"/>
</svg>